<svg width="24" height="25" viewBox="0 0 24 25" fill="none" xmlns="http://www.w3.org/2000/svg">
<path d="M21.2806 18.924C20.9328 19.7275 20.5211 20.4672 20.0441 21.1472C19.3939 22.0743 18.8615 22.716 18.4512 23.0724C17.8151 23.6573 17.1337 23.9568 16.4039 23.9739C15.8801 23.9739 15.2483 23.8248 14.5129 23.5224C13.7751 23.2214 13.097 23.0724 12.477 23.0724C11.8268 23.0724 11.1294 23.2214 10.3835 23.5224C9.63647 23.8248 9.03466 23.9824 8.57453 23.998C7.87475 24.0278 7.17725 23.7198 6.48102 23.0724C6.03665 22.6848 5.48084 22.0204 4.81499 21.0791C4.1006 20.0739 3.51326 18.9084 3.05313 17.5795C2.56035 16.1442 2.31332 14.7543 2.31332 13.4087C2.31332 11.8673 2.64639 10.5379 3.31351 9.42385C3.83781 8.52901 4.53531 7.82313 5.40829 7.30494C6.28127 6.78674 7.22453 6.52268 8.24033 6.50578C8.79614 6.50578 9.52502 6.67771 10.4308 7.0156C11.334 7.35463 11.914 7.52656 12.1682 7.52656C12.3583 7.52656 13.0026 7.32552 14.0948 6.92474C15.1276 6.55306 15.9993 6.39916 16.7134 6.45979C18.6485 6.61595 20.1023 7.37876 21.0691 8.75304C19.3385 9.80164 18.4824 11.2703 18.4994 13.1544C18.5151 14.622 19.0474 15.8432 20.0938 16.8129C20.568 17.2629 21.0975 17.6107 21.6867 17.8578C21.5589 18.2283 21.424 18.5832 21.2806 18.924ZM16.8426 1.46014C16.8426 2.6104 16.4224 3.6844 15.5848 4.67848C14.5739 5.86024 13.3513 6.54312 12.0254 6.43537C12.0085 6.29737 11.9987 6.15213 11.9987 5.99952C11.9987 4.89527 12.4794 3.7135 13.3331 2.74725C13.7593 2.25801 14.3014 1.85123 14.9587 1.52672C15.6146 1.20706 16.235 1.03028 16.8185 1.00001C16.8355 1.15378 16.8426 1.30756 16.8426 1.46012V1.46014Z" fill="black"/>
</svg>
