<svg width="24" height="25" viewBox="0 0 24 25" fill="none" xmlns="http://www.w3.org/2000/svg">
<path d="M14.4183 5.98994C13.9423 5.902 13.5051 6.20579 13.4144 6.67048C13.3238 7.13516 13.6286 7.58884 14.0917 7.67978C15.4859 7.9516 16.5625 9.03085 16.8354 10.4299V10.4309C16.913 10.8336 17.2676 11.1264 17.6759 11.1264C17.7307 11.1264 17.7855 11.1214 17.8412 11.1114C18.3043 11.0185 18.6091 10.5658 18.5184 10.1001C18.1111 8.01055 16.5027 6.39666 14.4183 5.98994Z" fill="white"/>
<path d="M14.3561 2.50793C14.133 2.47595 13.9089 2.54191 13.7306 2.68381C13.5474 2.82771 13.4329 3.03557 13.408 3.26841C13.3552 3.73908 13.6948 4.16479 14.1649 4.21776C17.4065 4.57951 19.9261 7.10477 20.2906 10.3565C20.3394 10.7922 20.7049 11.121 21.1411 11.121C21.174 11.121 21.2059 11.119 21.2387 11.115C21.4668 11.09 21.67 10.9771 21.8134 10.7972C21.9558 10.6174 22.0205 10.3935 21.9946 10.1647C21.5405 6.10746 18.4004 2.95862 14.3561 2.50793Z" fill="white"/>
<path fill-rule="evenodd" clip-rule="evenodd" d="M11.0317 13.4724C15.0208 17.4604 15.9258 12.8467 18.4656 15.3848C20.9143 17.8328 22.3216 18.3232 19.2192 21.4247C18.8306 21.737 16.3616 25.4943 7.6846 16.8197C-0.993478 8.144 2.76158 5.67244 3.07397 5.28395C6.18387 2.17385 6.66586 3.58938 9.11449 6.03733C11.6544 8.5765 7.04266 9.48441 11.0317 13.4724Z" fill="white"/>
</svg>
